<?xml version="1.0" encoding="UTF-8"?>
<mxfile host="app.diagrams.net" modified="2024-01-01T00:00:00.000Z" agent="5.0" etag="arquitectura_tecnica_aws" version="21.0.0" type="device">
  <diagram name="Arquitectura Técnica AWS" id="aws-architecture">
    <mxGraphModel dx="2000" dy="1200" grid="1" gridSize="10" guides="1" tooltips="1" connect="1" arrows="1" fold="1" page="1" pageScale="1" pageWidth="1654" pageHeight="1169" math="0" shadow="1">
      <root>
        <mxCell id="0" />
        <mxCell id="1" parent="0" />

        <!-- Background and Title -->
        <mxCell id="bg-1" value="" style="rounded=0;whiteSpace=wrap;html=1;fillColor=#f5f5f5;strokeColor=none;" parent="1" vertex="1">
          <mxGeometry x="0" y="0" width="1654" height="1169" as="geometry" />
        </mxCell>

        <mxCell id="title-main" value="ARQUITECTURA TÉCNICA AWS - AGENTE DE ADOPS AUTÓNOMO" style="text;html=1;strokeColor=none;fillColor=none;align=center;verticalAlign=middle;whiteSpace=wrap;rounded=0;fontSize=24;fontStyle=1;fontColor=#232f3e;" parent="1" vertex="1">
          <mxGeometry x="500" y="20" width="654" height="40" as="geometry" />
        </mxCell>

        <!-- AWS Cloud Container -->
        <mxCell id="aws-cloud" value="AWS Cloud" style="rounded=1;whiteSpace=wrap;html=1;fillColor=none;strokeColor=#232f3e;strokeWidth=3;dashed=1;dashPattern=5 5;verticalAlign=top;fontSize=16;fontStyle=1;fontColor=#232f3e;" parent="1" vertex="1">
          <mxGeometry x="80" y="100" width="1494" height="980" as="geometry" />
        </mxCell>

        <!-- Region Container -->
        <mxCell id="region-1" value="Region: us-east-1 (Primary)" style="rounded=0;whiteSpace=wrap;html=1;fillColor=#fff9e6;strokeColor=#ff9900;strokeWidth=2;verticalAlign=top;fontSize=14;fontStyle=1;" parent="1" vertex="1">
          <mxGeometry x="120" y="140" width="1414" height="900" as="geometry" />
        </mxCell>

        <!-- VPC Container -->
        <mxCell id="vpc-1" value="Production VPC (10.0.0.0/16)" style="rounded=0;whiteSpace=wrap;html=1;fillColor=#e8f5e9;strokeColor=#4caf50;strokeWidth=2;verticalAlign=top;fontSize=13;fontStyle=1;" parent="1" vertex="1">
          <mxGeometry x="160" y="200" width="1334" height="800" as="geometry" />
        </mxCell>

        <!-- Public Subnet AZ-1 -->
        <mxCell id="subnet-public-1" value="Public Subnet AZ-1&#xa;10.0.1.0/24" style="rounded=0;whiteSpace=wrap;html=1;fillColor=#e3f2fd;strokeColor=#2196f3;strokeWidth=2;verticalAlign=top;fontSize=11;" parent="1" vertex="1">
          <mxGeometry x="200" y="250" width="280" height="150" as="geometry" />
        </mxCell>

        <!-- Internet Gateway -->
        <mxCell id="igw-1" value="" style="outlineConnect=0;dashed=0;verticalLabelPosition=bottom;verticalAlign=top;align=center;html=1;shape=mxgraph.aws3.internet_gateway;fillColor=#F58534;gradientColor=none;" parent="1" vertex="1">
          <mxGeometry x="320" y="150" width="40" height="40" as="geometry" />
        </mxCell>
        <mxCell id="igw-label" value="Internet Gateway" style="text;html=1;strokeColor=none;fillColor=none;align=center;verticalAlign=middle;whiteSpace=wrap;rounded=0;fontSize=10;" parent="1" vertex="1">
          <mxGeometry x="300" y="190" width="80" height="20" as="geometry" />
        </mxCell>

        <!-- NAT Gateway -->
        <mxCell id="nat-1" value="" style="outlineConnect=0;dashed=0;verticalLabelPosition=bottom;verticalAlign=top;align=center;html=1;shape=mxgraph.aws3.vpc_nat_gateway;fillColor=#F58534;gradientColor=none;" parent="1" vertex="1">
          <mxGeometry x="220" y="290" width="40" height="40" as="geometry" />
        </mxCell>
        <mxCell id="nat-label" value="NAT Gateway" style="text;html=1;strokeColor=none;fillColor=none;align=center;verticalAlign=middle;whiteSpace=wrap;rounded=0;fontSize=10;" parent="1" vertex="1">
          <mxGeometry x="200" y="330" width="80" height="20" as="geometry" />
        </mxCell>

        <!-- Application Load Balancer -->
        <mxCell id="alb-1" value="" style="outlineConnect=0;dashed=0;verticalLabelPosition=bottom;verticalAlign=top;align=center;html=1;shape=mxgraph.aws3.application_load_balancer;fillColor=#F58534;gradientColor=none;" parent="1" vertex="1">
          <mxGeometry x="320" y="290" width="40" height="40" as="geometry" />
        </mxCell>
        <mxCell id="alb-label" value="ALB" style="text;html=1;strokeColor=none;fillColor=none;align=center;verticalAlign=middle;whiteSpace=wrap;rounded=0;fontSize=10;" parent="1" vertex="1">
          <mxGeometry x="310" y="330" width="60" height="20" as="geometry" />
        </mxCell>

        <!-- API Gateway -->
        <mxCell id="apigw-1" value="" style="outlineConnect=0;dashed=0;verticalLabelPosition=bottom;verticalAlign=top;align=center;html=1;shape=mxgraph.aws3.api_gateway;fillColor=#FF9900;gradientColor=none;" parent="1" vertex="1">
          <mxGeometry x="410" y="290" width="40" height="40" as="geometry" />
        </mxCell>
        <mxCell id="apigw-label" value="API Gateway" style="text;html=1;strokeColor=none;fillColor=none;align=center;verticalAlign=middle;whiteSpace=wrap;rounded=0;fontSize=10;" parent="1" vertex="1">
          <mxGeometry x="390" y="330" width="80" height="20" as="geometry" />
        </mxCell>

        <!-- Private Subnet App Tier AZ-1 -->
        <mxCell id="subnet-private-app-1" value="Private Subnet - App Tier AZ-1&#xa;10.0.10.0/24" style="rounded=0;whiteSpace=wrap;html=1;fillColor=#fff3e0;strokeColor=#ff9900;strokeWidth=2;verticalAlign=top;fontSize=11;" parent="1" vertex="1">
          <mxGeometry x="200" y="430" width="640" height="200" as="geometry" />
        </mxCell>

        <!-- Amazon Bedrock Agent -->
        <mxCell id="bedrock-group" value="Amazon Bedrock" style="rounded=1;whiteSpace=wrap;html=1;fillColor=#e1bee7;strokeColor=#9c27b0;strokeWidth=2;verticalAlign=top;fontSize=12;fontStyle=1;" parent="1" vertex="1">
          <mxGeometry x="220" y="470" width="200" height="140" as="geometry" />
        </mxCell>

        <mxCell id="bedrock-agent" value="" style="sketch=0;points=[[0,0,0],[0.25,0,0],[0.5,0,0],[0.75,0,0],[1,0,0],[0,1,0],[0.25,1,0],[0.5,1,0],[0.75,1,0],[1,1,0],[0,0.25,0],[0,0.5,0],[0,0.75,0],[1,0.25,0],[1,0.5,0],[1,0.75,0]];outlineConnect=0;fontColor=#232F3E;gradientColor=#FF4F8B;gradientDirection=north;fillColor=#BC1356;strokeColor=#ffffff;dashed=0;verticalLabelPosition=bottom;verticalAlign=top;align=center;html=1;fontSize=12;fontStyle=0;aspect=fixed;shape=mxgraph.aws4.resourceIcon;resIcon=mxgraph.aws4.bedrock;" parent="1" vertex="1">
          <mxGeometry x="280" y="510" width="50" height="50" as="geometry" />
        </mxCell>
        <mxCell id="bedrock-label" value="Bedrock Agent&#xa;(Claude 3)" style="text;html=1;strokeColor=none;fillColor=none;align=center;verticalAlign=middle;whiteSpace=wrap;rounded=0;fontSize=10;" parent="1" vertex="1">
          <mxGeometry x="260" y="560" width="90" height="30" as="geometry" />
        </mxCell>

        <!-- Lambda Functions -->
        <mxCell id="lambda-group" value="Lambda Functions" style="rounded=1;whiteSpace=wrap;html=1;fillColor=#ffebee;strokeColor=#f44336;strokeWidth=2;verticalAlign=top;fontSize=12;fontStyle=1;" parent="1" vertex="1">
          <mxGeometry x="440" y="470" width="380" height="140" as="geometry" />
        </mxCell>

        <mxCell id="lambda-1" value="" style="outlineConnect=0;dashed=0;verticalLabelPosition=bottom;verticalAlign=top;align=center;html=1;shape=mxgraph.aws3.lambda;fillColor=#FF9900;gradientColor=none;" parent="1" vertex="1">
          <mxGeometry x="460" y="510" width="40" height="40" as="geometry" />
        </mxCell>
        <mxCell id="lambda-1-label" value="Diagnostic&#xa;Tools" style="text;html=1;strokeColor=none;fillColor=none;align=center;verticalAlign=middle;whiteSpace=wrap;rounded=0;fontSize=9;" parent="1" vertex="1">
          <mxGeometry x="450" y="550" width="60" height="25" as="geometry" />
        </mxCell>

        <mxCell id="lambda-2" value="" style="outlineConnect=0;dashed=0;verticalLabelPosition=bottom;verticalAlign=top;align=center;html=1;shape=mxgraph.aws3.lambda;fillColor=#FF9900;gradientColor=none;" parent="1" vertex="1">
          <mxGeometry x="540" y="510" width="40" height="40" as="geometry" />
        </mxCell>
        <mxCell id="lambda-2-label" value="Remediation&#xa;Actions" style="text;html=1;strokeColor=none;fillColor=none;align=center;verticalAlign=middle;whiteSpace=wrap;rounded=0;fontSize=9;" parent="1" vertex="1">
          <mxGeometry x="530" y="550" width="60" height="25" as="geometry" />
        </mxCell>

        <mxCell id="lambda-3" value="" style="outlineConnect=0;dashed=0;verticalLabelPosition=bottom;verticalAlign=top;align=center;html=1;shape=mxgraph.aws3.lambda;fillColor=#FF9900;gradientColor=none;" parent="1" vertex="1">
          <mxGeometry x="620" y="510" width="40" height="40" as="geometry" />
        </mxCell>
        <mxCell id="lambda-3-label" value="Log&#xa;Analysis" style="text;html=1;strokeColor=none;fillColor=none;align=center;verticalAlign=middle;whiteSpace=wrap;rounded=0;fontSize=9;" parent="1" vertex="1">
          <mxGeometry x="610" y="550" width="60" height="25" as="geometry" />
        </mxCell>

        <mxCell id="lambda-4" value="" style="outlineConnect=0;dashed=0;verticalLabelPosition=bottom;verticalAlign=top;align=center;html=1;shape=mxgraph.aws3.lambda;fillColor=#FF9900;gradientColor=none;" parent="1" vertex="1">
          <mxGeometry x="700" y="510" width="40" height="40" as="geometry" />
        </mxCell>
        <mxCell id="lambda-4-label" value="Metric&#xa;Validation" style="text;html=1;strokeColor=none;fillColor=none;align=center;verticalAlign=middle;whiteSpace=wrap;rounded=0;fontSize=9;" parent="1" vertex="1">
          <mxGeometry x="690" y="550" width="60" height="25" as="geometry" />
        </mxCell>

        <mxCell id="lambda-5" value="" style="outlineConnect=0;dashed=0;verticalLabelPosition=bottom;verticalAlign=top;align=center;html=1;shape=mxgraph.aws3.lambda;fillColor=#FF9900;gradientColor=none;" parent="1" vertex="1">
          <mxGeometry x="770" y="510" width="40" height="40" as="geometry" />
        </mxCell>
        <mxCell id="lambda-5-label" value="Notification&#xa;Handler" style="text;html=1;strokeColor=none;fillColor=none;align=center;verticalAlign=middle;whiteSpace=wrap;rounded=0;fontSize=9;" parent="1" vertex="1">
          <mxGeometry x="760" y="550" width="60" height="25" as="geometry" />
        </mxCell>

        <!-- Private Subnet Data Tier AZ-1 -->
        <mxCell id="subnet-private-data-1" value="Private Subnet - Data Tier AZ-1&#xa;10.0.20.0/24" style="rounded=0;whiteSpace=wrap;html=1;fillColor=#e8eaf6;strokeColor=#3f51b5;strokeWidth=2;verticalAlign=top;fontSize=11;" parent="1" vertex="1">
          <mxGeometry x="200" y="660" width="640" height="180" as="geometry" />
        </mxCell>

        <!-- DynamoDB -->
        <mxCell id="dynamodb-1" value="" style="outlineConnect=0;dashed=0;verticalLabelPosition=bottom;verticalAlign=top;align=center;html=1;shape=mxgraph.aws3.dynamodb;fillColor=#2196F3;gradientColor=none;" parent="1" vertex="1">
          <mxGeometry x="240" y="720" width="50" height="50" as="geometry" />
        </mxCell>
        <mxCell id="dynamodb-label" value="DynamoDB&#xa;Publisher Config" style="text;html=1;strokeColor=none;fillColor=none;align=center;verticalAlign=middle;whiteSpace=wrap;rounded=0;fontSize=10;" parent="1" vertex="1">
          <mxGeometry x="220" y="770" width="90" height="30" as="geometry" />
        </mxCell>

        <!-- RDS -->
        <mxCell id="rds-1" value="" style="outlineConnect=0;dashed=0;verticalLabelPosition=bottom;verticalAlign=top;align=center;html=1;shape=mxgraph.aws3.rds;fillColor=#2196F3;gradientColor=none;" parent="1" vertex="1">
          <mxGeometry x="350" y="720" width="50" height="50" as="geometry" />
        </mxCell>
        <mxCell id="rds-label" value="RDS PostgreSQL&#xa;(Multi-AZ)" style="text;html=1;strokeColor=none;fillColor=none;align=center;verticalAlign=middle;whiteSpace=wrap;rounded=0;fontSize=10;" parent="1" vertex="1">
          <mxGeometry x="330" y="770" width="90" height="30" as="geometry" />
        </mxCell>

        <!-- S3 Data Lake -->
        <mxCell id="s3-1" value="" style="outlineConnect=0;dashed=0;verticalLabelPosition=bottom;verticalAlign=top;align=center;html=1;shape=mxgraph.aws3.s3;fillColor=#E05243;gradientColor=none;" parent="1" vertex="1">
          <mxGeometry x="460" y="720" width="50" height="50" as="geometry" />
        </mxCell>
        <mxCell id="s3-label" value="S3 Data Lake&#xa;Knowledge Base" style="text;html=1;strokeColor=none;fillColor=none;align=center;verticalAlign=middle;whiteSpace=wrap;rounded=0;fontSize=10;" parent="1" vertex="1">
          <mxGeometry x="440" y="770" width="90" height="30" as="geometry" />
        </mxCell>

        <!-- OpenSearch -->
        <mxCell id="opensearch-1" value="" style="outlineConnect=0;dashed=0;verticalLabelPosition=bottom;verticalAlign=top;align=center;html=1;shape=mxgraph.aws3.elasticsearch_service;fillColor=#F58534;gradientColor=none;" parent="1" vertex="1">
          <mxGeometry x="570" y="720" width="50" height="50" as="geometry" />
        </mxCell>
        <mxCell id="opensearch-label" value="OpenSearch&#xa;Vector DB" style="text;html=1;strokeColor=none;fillColor=none;align=center;verticalAlign=middle;whiteSpace=wrap;rounded=0;fontSize=10;" parent="1" vertex="1">
          <mxGeometry x="550" y="770" width="90" height="30" as="geometry" />
        </mxCell>

        <!-- ElastiCache -->
        <mxCell id="elasticache-1" value="" style="outlineConnect=0;dashed=0;verticalLabelPosition=bottom;verticalAlign=top;align=center;html=1;shape=mxgraph.aws3.elasticache;fillColor=#2196F3;gradientColor=none;" parent="1" vertex="1">
          <mxGeometry x="680" y="720" width="50" height="50" as="geometry" />
        </mxCell>
        <mxCell id="elasticache-label" value="ElastiCache&#xa;Redis" style="text;html=1;strokeColor=none;fillColor=none;align=center;verticalAlign=middle;whiteSpace=wrap;rounded=0;fontSize=10;" parent="1" vertex="1">
          <mxGeometry x="660" y="770" width="90" height="30" as="geometry" />
        </mxCell>

        <!-- Monitoring and Observability Section -->
        <mxCell id="monitoring-group" value="Monitoring and Observability" style="rounded=1;whiteSpace=wrap;html=1;fillColor=#fce4ec;strokeColor=#c2185b;strokeWidth=2;verticalAlign=top;fontSize=12;fontStyle=1;" parent="1" vertex="1">
          <mxGeometry x="880" y="250" width="280" height="350" as="geometry" />
        </mxCell>

        <!-- CloudWatch -->
        <mxCell id="cloudwatch-1" value="" style="outlineConnect=0;dashed=0;verticalLabelPosition=bottom;verticalAlign=top;align=center;html=1;shape=mxgraph.aws3.cloudwatch;fillColor=#E05243;gradientColor=none;" parent="1" vertex="1">
          <mxGeometry x="910" y="290" width="50" height="50" as="geometry" />
        </mxCell>
        <mxCell id="cloudwatch-label" value="CloudWatch&#xa;Metrics and Alarms" style="text;html=1;strokeColor=none;fillColor=none;align=center;verticalAlign=middle;whiteSpace=wrap;rounded=0;fontSize=10;" parent="1" vertex="1">
          <mxGeometry x="890" y="340" width="90" height="30" as="geometry" />
        </mxCell>

        <!-- X-Ray -->
        <mxCell id="xray-1" value="" style="outlineConnect=0;dashed=0;verticalLabelPosition=bottom;verticalAlign=top;align=center;html=1;shape=mxgraph.aws3.x_ray;fillColor=#F58534;gradientColor=none;" parent="1" vertex="1">
          <mxGeometry x="1010" y="290" width="50" height="50" as="geometry" />
        </mxCell>
        <mxCell id="xray-label" value="X-Ray&#xa;Tracing" style="text;html=1;strokeColor=none;fillColor=none;align=center;verticalAlign=middle;whiteSpace=wrap;rounded=0;fontSize=10;" parent="1" vertex="1">
          <mxGeometry x="990" y="340" width="90" height="30" as="geometry" />
        </mxCell>

        <!-- CloudTrail -->
        <mxCell id="cloudtrail-1" value="" style="outlineConnect=0;dashed=0;verticalLabelPosition=bottom;verticalAlign=top;align=center;html=1;shape=mxgraph.aws3.cloudtrail;fillColor=#F58534;gradientColor=none;" parent="1" vertex="1">
          <mxGeometry x="910" y="390" width="50" height="50" as="geometry" />
        </mxCell>
        <mxCell id="cloudtrail-label" value="CloudTrail&#xa;Audit Logs" style="text;html=1;strokeColor=none;fillColor=none;align=center;verticalAlign=middle;whiteSpace=wrap;rounded=0;fontSize=10;" parent="1" vertex="1">
          <mxGeometry x="890" y="440" width="90" height="30" as="geometry" />
        </mxCell>

        <!-- EventBridge -->
        <mxCell id="eventbridge-1" value="" style="outlineConnect=0;dashed=0;verticalLabelPosition=bottom;verticalAlign=top;align=center;html=1;shape=mxgraph.aws3.eventbridge;fillColor=#E05243;gradientColor=none;" parent="1" vertex="1">
          <mxGeometry x="1010" y="390" width="50" height="50" as="geometry" />
        </mxCell>
        <mxCell id="eventbridge-label" value="EventBridge&#xa;Event Router" style="text;html=1;strokeColor=none;fillColor=none;align=center;verticalAlign=middle;whiteSpace=wrap;rounded=0;fontSize=10;" parent="1" vertex="1">
          <mxGeometry x="990" y="440" width="90" height="30" as="geometry" />
        </mxCell>

        <!-- SNS -->
        <mxCell id="sns-1" value="" style="outlineConnect=0;dashed=0;verticalLabelPosition=bottom;verticalAlign=top;align=center;html=1;shape=mxgraph.aws3.sns;fillColor=#E05243;gradientColor=none;" parent="1" vertex="1">
          <mxGeometry x="910" y="490" width="50" height="50" as="geometry" />
        </mxCell>
        <mxCell id="sns-label" value="SNS&#xa;Notifications" style="text;html=1;strokeColor=none;fillColor=none;align=center;verticalAlign=middle;whiteSpace=wrap;rounded=0;fontSize=10;" parent="1" vertex="1">
          <mxGeometry x="890" y="540" width="90" height="30" as="geometry" />
        </mxCell>

        <!-- Step Functions -->
        <mxCell id="stepfunctions-1" value="" style="outlineConnect=0;dashed=0;verticalLabelPosition=bottom;verticalAlign=top;align=center;html=1;shape=mxgraph.aws3.step_functions;fillColor=#E05243;gradientColor=none;" parent="1" vertex="1">
          <mxGeometry x="1010" y="490" width="50" height="50" as="geometry" />
        </mxCell>
        <mxCell id="stepfunctions-label" value="Step Functions&#xa;Orchestration" style="text;html=1;strokeColor=none;fillColor=none;align=center;verticalAlign=middle;whiteSpace=wrap;rounded=0;fontSize=10;" parent="1" vertex="1">
          <mxGeometry x="990" y="540" width="90" height="30" as="geometry" />
        </mxCell>

        <!-- Security and Governance Section -->
        <mxCell id="security-group" value="Security and Governance" style="rounded=1;whiteSpace=wrap;html=1;fillColor=#f3e5f5;strokeColor=#7b1fa2;strokeWidth=2;verticalAlign=top;fontSize=12;fontStyle=1;" parent="1" vertex="1">
          <mxGeometry x="1200" y="250" width="280" height="350" as="geometry" />
        </mxCell>

        <!-- IAM -->
        <mxCell id="iam-1" value="" style="outlineConnect=0;dashed=0;verticalLabelPosition=bottom;verticalAlign=top;align=center;html=1;shape=mxgraph.aws3.iam;fillColor=#6CAE3E;gradientColor=none;" parent="1" vertex="1">
          <mxGeometry x="1230" y="290" width="50" height="50" as="geometry" />
        </mxCell>
        <mxCell id="iam-label" value="IAM Roles&#xa;and Policies" style="text;html=1;strokeColor=none;fillColor=none;align=center;verticalAlign=middle;whiteSpace=wrap;rounded=0;fontSize=10;" parent="1" vertex="1">
          <mxGeometry x="1210" y="340" width="90" height="30" as="geometry" />
        </mxCell>

        <!-- KMS -->
        <mxCell id="kms-1" value="" style="outlineConnect=0;dashed=0;verticalLabelPosition=bottom;verticalAlign=top;align=center;html=1;shape=mxgraph.aws3.kms;fillColor=#6CAE3E;gradientColor=none;" parent="1" vertex="1">
          <mxGeometry x="1330" y="290" width="50" height="50" as="geometry" />
        </mxCell>
        <mxCell id="kms-label" value="KMS&#xa;Encryption Keys" style="text;html=1;strokeColor=none;fillColor=none;align=center;verticalAlign=middle;whiteSpace=wrap;rounded=0;fontSize=10;" parent="1" vertex="1">
          <mxGeometry x="1310" y="340" width="90" height="30" as="geometry" />
        </mxCell>

        <!-- Secrets Manager -->
        <mxCell id="secrets-1" value="" style="outlineConnect=0;dashed=0;verticalLabelPosition=bottom;verticalAlign=top;align=center;html=1;shape=mxgraph.aws3.secrets_manager;fillColor=#6CAE3E;gradientColor=none;" parent="1" vertex="1">
          <mxGeometry x="1230" y="390" width="50" height="50" as="geometry" />
        </mxCell>
        <mxCell id="secrets-label" value="Secrets Manager&#xa;API Keys" style="text;html=1;strokeColor=none;fillColor=none;align=center;verticalAlign=middle;whiteSpace=wrap;rounded=0;fontSize=10;" parent="1" vertex="1">
          <mxGeometry x="1210" y="440" width="90" height="30" as="geometry" />
        </mxCell>

        <!-- GuardDuty -->
        <mxCell id="guardduty-1" value="" style="outlineConnect=0;dashed=0;verticalLabelPosition=bottom;verticalAlign=top;align=center;html=1;shape=mxgraph.aws3.guardduty;fillColor=#6CAE3E;gradientColor=none;" parent="1" vertex="1">
          <mxGeometry x="1330" y="390" width="50" height="50" as="geometry" />
        </mxCell>
        <mxCell id="guardduty-label" value="GuardDuty&#xa;Threat Detection" style="text;html=1;strokeColor=none;fillColor=none;align=center;verticalAlign=middle;whiteSpace=wrap;rounded=0;fontSize=10;" parent="1" vertex="1">
          <mxGeometry x="1310" y="440" width="90" height="30" as="geometry" />
        </mxCell>

        <!-- Config -->
        <mxCell id="config-1" value="" style="outlineConnect=0;dashed=0;verticalLabelPosition=bottom;verticalAlign=top;align=center;html=1;shape=mxgraph.aws3.config;fillColor=#6CAE3E;gradientColor=none;" parent="1" vertex="1">
          <mxGeometry x="1230" y="490" width="50" height="50" as="geometry" />
        </mxCell>
        <mxCell id="config-label" value="AWS Config&#xa;Compliance" style="text;html=1;strokeColor=none;fillColor=none;align=center;verticalAlign=middle;whiteSpace=wrap;rounded=0;fontSize=10;" parent="1" vertex="1">
          <mxGeometry x="1210" y="540" width="90" height="30" as="geometry" />
        </mxCell>

        <!-- Security Hub -->
        <mxCell id="securityhub-1" value="" style="outlineConnect=0;dashed=0;verticalLabelPosition=bottom;verticalAlign=top;align=center;html=1;shape=mxgraph.aws3.security_hub;fillColor=#6CAE3E;gradientColor=none;" parent="1" vertex="1">
          <mxGeometry x="1330" y="490" width="50" height="50" as="geometry" />
        </mxCell>
        <mxCell id="securityhub-label" value="Security Hub&#xa;Central View" style="text;html=1;strokeColor=none;fillColor=none;align=center;verticalAlign=middle;whiteSpace=wrap;rounded=0;fontSize=10;" parent="1" vertex="1">
          <mxGeometry x="1310" y="540" width="90" height="30" as="geometry" />
        </mxCell>

        <!-- CI/CD Section -->
        <mxCell id="cicd-group" value="CI/CD Pipeline" style="rounded=1;whiteSpace=wrap;html=1;fillColor=#e0f7fa;strokeColor=#00838f;strokeWidth=2;verticalAlign=top;fontSize=12;fontStyle=1;" parent="1" vertex="1">
          <mxGeometry x="880" y="660" width="600" height="180" as="geometry" />
        </mxCell>

        <!-- CodeCommit -->
        <mxCell id="codecommit-1" value="" style="outlineConnect=0;dashed=0;verticalLabelPosition=bottom;verticalAlign=top;align=center;html=1;shape=mxgraph.aws3.codecommit;fillColor=#FF9900;gradientColor=none;" parent="1" vertex="1">
          <mxGeometry x="920" y="720" width="50" height="50" as="geometry" />
        </mxCell>
        <mxCell id="codecommit-label" value="CodeCommit&#xa;Source Repo" style="text;html=1;strokeColor=none;fillColor=none;align=center;verticalAlign=middle;whiteSpace=wrap;rounded=0;fontSize=10;" parent="1" vertex="1">
          <mxGeometry x="900" y="770" width="90" height="30" as="geometry" />
        </mxCell>

        <!-- CodeBuild -->
        <mxCell id="codebuild-1" value="" style="outlineConnect=0;dashed=0;verticalLabelPosition=bottom;verticalAlign=top;align=center;html=1;shape=mxgraph.aws3.codebuild;fillColor=#FF9900;gradientColor=none;" parent="1" vertex="1">
          <mxGeometry x="1050" y="720" width="50" height="50" as="geometry" />
        </mxCell>
        <mxCell id="codebuild-label" value="CodeBuild&#xa;Build and Test" style="text;html=1;strokeColor=none;fillColor=none;align=center;verticalAlign=middle;whiteSpace=wrap;rounded=0;fontSize=10;" parent="1" vertex="1">
          <mxGeometry x="1030" y="770" width="90" height="30" as="geometry" />
        </mxCell>

        <!-- CodePipeline -->
        <mxCell id="codepipeline-1" value="" style="outlineConnect=0;dashed=0;verticalLabelPosition=bottom;verticalAlign=top;align=center;html=1;shape=mxgraph.aws3.codepipeline;fillColor=#FF9900;gradientColor=none;" parent="1" vertex="1">
          <mxGeometry x="1180" y="720" width="50" height="50" as="geometry" />
        </mxCell>
        <mxCell id="codepipeline-label" value="CodePipeline&#xa;Orchestration" style="text;html=1;strokeColor=none;fillColor=none;align=center;verticalAlign=middle;whiteSpace=wrap;rounded=0;fontSize=10;" parent="1" vertex="1">
          <mxGeometry x="1160" y="770" width="90" height="30" as="geometry" />
        </mxCell>

        <!-- CodeDeploy -->
        <mxCell id="codedeploy-1" value="" style="outlineConnect=0;dashed=0;verticalLabelPosition=bottom;verticalAlign=top;align=center;html=1;shape=mxgraph.aws3.codedeploy;fillColor=#FF9900;gradientColor=none;" parent="1" vertex="1">
          <mxGeometry x="1310" y="720" width="50" height="50" as="geometry" />
        </mxCell>
        <mxCell id="codedeploy-label" value="CodeDeploy&#xa;Blue/Green" style="text;html=1;strokeColor=none;fillColor=none;align=center;verticalAlign=middle;whiteSpace=wrap;rounded=0;fontSize=10;" parent="1" vertex="1">
          <mxGeometry x="1290" y="770" width="90" height="30" as="geometry" />
        </mxCell>

        <!-- CloudFormation -->
        <mxCell id="cloudformation-1" value="" style="outlineConnect=0;dashed=0;verticalLabelPosition=bottom;verticalAlign=top;align=center;html=1;shape=mxgraph.aws3.cloudformation;fillColor=#FF9900;gradientColor=none;" parent="1" vertex="1">
          <mxGeometry x="1410" y="720" width="50" height="50" as="geometry" />
        </mxCell>
        <mxCell id="cloudformation-label" value="CloudFormation&#xa;IaC" style="text;html=1;strokeColor=none;fillColor=none;align=center;verticalAlign=middle;whiteSpace=wrap;rounded=0;fontSize=10;" parent="1" vertex="1">
          <mxGeometry x="1390" y="770" width="90" height="30" as="geometry" />
        </mxCell>

        <!-- Connections -->
        <!-- Internet to IGW -->
        <mxCell id="arrow-1" value="" style="endArrow=classic;startArrow=classic;html=1;strokeWidth=2;strokeColor=#1976d2;" parent="1" edge="1">
          <mxGeometry width="50" height="50" relative="1" as="geometry">
            <mxPoint x="340" y="120" as="sourcePoint" />
            <mxPoint x="340" y="150" as="targetPoint" />
          </mxGeometry>
        </mxCell>

        <!-- IGW to ALB -->
        <mxCell id="arrow-2" value="" style="endArrow=classic;html=1;strokeWidth=2;strokeColor=#1976d2;" parent="1" edge="1">
          <mxGeometry width="50" height="50" relative="1" as="geometry">
            <mxPoint x="340" y="190" as="sourcePoint" />
            <mxPoint x="340" y="290" as="targetPoint" />
          </mxGeometry>
        </mxCell>

        <!-- ALB to API Gateway -->
        <mxCell id="arrow-3" value="" style="endArrow=classic;html=1;strokeWidth=2;strokeColor=#ff9900;" parent="1" edge="1">
          <mxGeometry width="50" height="50" relative="1" as="geometry">
            <mxPoint x="360" y="310" as="sourcePoint" />
            <mxPoint x="410" y="310" as="targetPoint" />
          </mxGeometry>
        </mxCell>

        <!-- API Gateway to Bedrock -->
        <mxCell id="arrow-4" value="" style="endArrow=classic;html=1;strokeWidth=2;strokeColor=#9c27b0;curved=1;" parent="1" edge="1">
          <mxGeometry width="50" height="50" relative="1" as="geometry">
            <mxPoint x="430" y="330" as="sourcePoint" />
            <mxPoint x="305" y="510" as="targetPoint" />
            <Array as="points">
              <mxPoint x="430" y="420" />
              <mxPoint x="305" y="420" />
            </Array>
          </mxGeometry>
        </mxCell>

        <!-- Bedrock to Lambda Functions -->
        <mxCell id="arrow-5" value="" style="endArrow=classic;html=1;strokeWidth=2;strokeColor=#f44336;" parent="1" edge="1">
          <mxGeometry width="50" height="50" relative="1" as="geometry">
            <mxPoint x="330" y="535" as="sourcePoint" />
            <mxPoint x="460" y="535" as="targetPoint" />
          </mxGeometry>
        </mxCell>

        <!-- Lambda to Databases -->
        <mxCell id="arrow-6" value="" style="endArrow=classic;html=1;strokeWidth=2;strokeColor=#2196f3;curved=1;" parent="1" edge="1">
          <mxGeometry width="50" height="50" relative="1" as="geometry">
            <mxPoint x="500" y="560" as="sourcePoint" />
            <mxPoint x="375" y="720" as="targetPoint" />
            <Array as="points">
              <mxPoint x="500" y="640" />
              <mxPoint x="375" y="640" />
            </Array>
          </mxGeometry>
        </mxCell>

        <!-- CloudWatch to EventBridge -->
        <mxCell id="arrow-7" value="" style="endArrow=classic;html=1;strokeWidth=2;strokeColor=#e91e63;" parent="1" edge="1">
          <mxGeometry width="50" height="50" relative="1" as="geometry">
            <mxPoint x="960" y="315" as="sourcePoint" />
            <mxPoint x="1010" y="315" as="targetPoint" />
          </mxGeometry>
        </mxCell>

        <!-- EventBridge to Lambda -->
        <mxCell id="arrow-8" value="" style="endArrow=classic;html=1;strokeWidth=2;strokeColor=#e91e63;curved=1;" parent="1" edge="1">
          <mxGeometry width="50" height="50" relative="1" as="geometry">
            <mxPoint x="1010" y="415" as="sourcePoint" />
            <mxPoint x="790" y="510" as="targetPoint" />
            <Array as="points">
              <mxPoint x="900" y="415" />
              <mxPoint x="900" y="460" />
              <mxPoint x="790" y="460" />
            </Array>
          </mxGeometry>
        </mxCell>

        <!-- Lambda to SNS -->
        <mxCell id="arrow-9" value="" style="endArrow=classic;html=1;strokeWidth=2;strokeColor=#f44336;curved=1;" parent="1" edge="1">
          <mxGeometry width="50" height="50" relative="1" as="geometry">
            <mxPoint x="790" y="550" as="sourcePoint" />
            <mxPoint x="910" y="515" as="targetPoint" />
            <Array as="points">
              <mxPoint x="850" y="550" />
              <mxPoint x="850" y="515" />
            </Array>
          </mxGeometry>
        </mxCell>

        <!-- Step Functions orchestration -->
        <mxCell id="arrow-10" value="" style="endArrow=classic;startArrow=classic;html=1;strokeWidth=2;strokeColor=#e91e63;curved=1;" parent="1" edge="1">
          <mxGeometry width="50" height="50" relative="1" as="geometry">
            <mxPoint x="1010" y="515" as="sourcePoint" />
            <mxPoint x="630" y="510" as="targetPoint" />
            <Array as="points">
              <mxPoint x="850" y="450" />
              <mxPoint x="630" y="450" />
            </Array>
          </mxGeometry>
        </mxCell>

        <!-- Legend -->
        <mxCell id="legend-title" value="LEYENDA" style="text;html=1;strokeColor=none;fillColor=none;align=left;verticalAlign=middle;whiteSpace=wrap;rounded=0;fontSize=12;fontStyle=1;" parent="1" vertex="1">
          <mxGeometry x="100" y="1080" width="80" height="20" as="geometry" />
        </mxCell>

        <mxCell id="legend-1" value="Flujo de Datos" style="endArrow=classic;html=1;strokeWidth=2;strokeColor=#1976d2;" parent="1" edge="1">
          <mxGeometry x="200" y="1080" width="100" height="20" as="geometry">
            <mxPoint x="200" y="1090" as="sourcePoint" />
            <mxPoint x="260" y="1090" as="targetPoint" />
          </mxGeometry>
        </mxCell>

        <mxCell id="legend-2" value="Invocación" style="endArrow=classic;html=1;strokeWidth=2;strokeColor=#f44336;" parent="1" edge="1">
          <mxGeometry x="320" y="1080" width="100" height="20" as="geometry">
            <mxPoint x="320" y="1090" as="sourcePoint" />
            <mxPoint x="380" y="1090" as="targetPoint" />
          </mxGeometry>
        </mxCell>

        <mxCell id="legend-3" value="Evento" style="endArrow=classic;html=1;strokeWidth=2;strokeColor=#e91e63;dashed=1;" parent="1" edge="1">
          <mxGeometry x="440" y="1080" width="100" height="20" as="geometry">
            <mxPoint x="440" y="1090" as="sourcePoint" />
            <mxPoint x="500" y="1090" as="targetPoint" />
          </mxGeometry>
        </mxCell>

        <!-- AWS Icons Attribution -->
        <mxCell id="attribution" value="AWS Architecture Icons used under AWS Simple Icons License" style="text;html=1;strokeColor=none;fillColor=none;align=right;verticalAlign=middle;whiteSpace=wrap;rounded=0;fontSize=8;fontStyle=2;fontColor=#999999;" parent="1" vertex="1">
          <mxGeometry x="1400" y="1140" width="240" height="20" as="geometry" />
        </mxCell>

      </root>
    </mxGraphModel>
  </diagram>
</mxfile>